<?xml version="1.0" encoding="iso-8859-1"?>
<!-- Generator: Adobe Illustrator 16.0.0, SVG Export Plug-In . SVG Version: 6.00 Build 0)  -->
<!DOCTYPE svg PUBLIC "-//W3C//DTD SVG 1.1//EN" "http://www.w3.org/Graphics/SVG/1.1/DTD/svg11.dtd">
<svg version="1.1" id="Layer_1" xmlns="http://www.w3.org/2000/svg" xmlns:xlink="http://www.w3.org/1999/xlink" x="0px" y="0px" viewBox="428.219 2178.684 611.981 200.032"
	 style="enable-background:new 428.219 2178.684 611.981 200.032;" xml:space="preserve">
<g>
	<g>
		<g>
			<g>
				<path style="fill:#FFFFFF;" d="M628.133,2338.41h-32.006v-5.802l12.202-12.302c3.601-3.7,6.001-6.301,7.201-7.801
					c1.2-1.501,2.001-3.001,2.601-4.301c0.5-1.4,0.8-2.801,0.8-4.401c0-2.101-0.6-3.801-1.899-5.001c-1.301-1.2-3.101-1.8-5.302-1.8
					c-1.8,0-3.601,0.3-5.301,1s-3.601,1.9-5.9,3.601l-4.101-5.001c2.6-2.2,5.2-3.801,7.701-4.7c2.5-0.9,5.101-1.4,7.901-1.4
					c4.4,0,7.901,1.1,10.602,3.4s4.001,5.4,4.001,9.302c0,2.1-0.4,4.2-1.101,6.101c-0.8,1.9-1.9,3.9-3.501,5.901
					c-1.6,2-4.2,4.801-7.901,8.301l-8.201,8.002v0.3h22.404L628.133,2338.41L628.133,2338.41z"/>
				<path style="fill:#FFFFFF;" d="M665.938,2314.806c0,8.201-1.3,14.303-4,18.304c-2.701,4-6.701,6-12.103,6
					c-5.301,0-9.201-2.1-12.002-6.2c-2.7-4.101-4.101-10.202-4.101-18.104c0-8.301,1.301-14.502,4.001-18.402
					c2.601-4.001,6.701-5.901,12.102-5.901c5.301,0,9.302,2.101,12.002,6.201C664.539,2300.804,665.938,2306.805,665.938,2314.806z
					 M641.535,2314.806c0,6.401,0.7,11.002,2,13.803c1.3,2.8,3.4,4.101,6.401,4.101c2.9,0,5.001-1.4,6.4-4.201
					c1.301-2.8,2.001-7.4,2.001-13.702c0-6.301-0.7-10.901-2.001-13.802c-1.3-2.801-3.5-4.301-6.4-4.301s-5.001,1.4-6.401,4.2
					C642.135,2303.804,641.535,2308.305,641.535,2314.806z"/>
				<path style="fill:#FFFFFF;" d="M693.943,2338.41h-7.602v-30.506c0-3.6,0.101-6.501,0.301-8.701c-0.5,0.5-1.101,1.101-1.801,1.7
					c-0.7,0.601-3.101,2.601-7.301,5.901l-3.801-4.801l13.902-10.902h6.301V2338.41L693.943,2338.41z"/>
				<path style="fill:#FFFFFF;" d="M725.549,2308.805c4.801,0,8.501,1.301,11.302,3.801c2.8,2.5,4.2,6.001,4.2,10.302
					c0,5.001-1.6,9.002-4.7,11.802c-3.201,2.801-7.602,4.301-13.503,4.301c-5.301,0-9.401-0.9-12.502-2.6v-6.901
					c1.701,1,3.801,1.8,6.001,2.3c2.301,0.5,4.401,0.801,6.302,0.801c3.4,0,6.001-0.801,7.801-2.301c1.801-1.5,2.7-3.801,2.7-6.701
					c0-5.601-3.601-8.501-10.802-8.501c-1,0-2.3,0.1-3.7,0.3c-1.5,0.2-2.801,0.4-3.9,0.7l-3.401-2l1.801-23.104h24.604v6.802
					h-17.902l-1.101,11.702c0.801-0.101,1.7-0.301,2.801-0.501C722.648,2308.905,723.948,2308.805,725.549,2308.805z"/>
			</g>
			<g>
				<g>
					<path style="fill:#FFFFFF;" d="M814.263,2238.693c0,8.901-2.4,15.803-7.301,20.604s-11.702,7.201-20.604,7.201h-17.203v-53.509
						h18.403c8.502,0,15.103,2.2,19.703,6.601C811.963,2224.091,814.263,2230.393,814.263,2238.693z M799.36,2239.193
						c0-4.9-1-8.501-2.9-10.901s-4.801-3.501-8.802-3.501h-4.2v29.905h3.2c4.401,0,7.602-1.301,9.602-3.801
						C798.36,2248.295,799.36,2244.395,799.36,2239.193z"/>
				</g>
				<g>
					<path style="fill:#FFFFFF;" d="M838.367,2267.198c-6.901,0-12.202-1.801-16.003-5.501c-3.801-3.701-5.701-8.901-5.701-15.703
						c0-7.001,1.801-12.401,5.301-16.103c3.501-3.7,8.502-5.601,15.003-5.601c6.201,0,11.002,1.601,14.402,4.9
						c3.4,3.301,5.101,7.902,5.101,14.103v6.401h-25.404c0.101,2.301,0.9,4.101,2.501,5.4c1.6,1.301,3.7,2.001,6.501,2.001
						c2.5,0,4.801-0.2,6.901-0.7c2.1-0.5,4.4-1.301,6.801-2.4v10.302c-2.2,1.2-4.501,1.9-6.901,2.4
						C844.468,2267.098,841.668,2267.198,838.367,2267.198z M837.566,2234.192c-1.7,0-3.1,0.5-4.2,1.601c-1.101,1.1-1.8,2.7-2,5.001
						h12.202c-0.101-2.001-0.601-3.601-1.701-4.801C840.768,2234.793,839.367,2234.192,837.566,2234.192z"/>
				</g>
				<g>
					<path style="fill:#FFFFFF;" d="M870.772,2266.598l-15.703-41.406h14.803l7.001,24.504c0,0.1,0.101,0.3,0.2,0.6
						c0.101,0.301,0.101,0.601,0.2,1c0.1,0.4,0.1,0.801,0.2,1.301c0.1,0.5,0.1,0.9,0.1,1.3h0.2c0-1.3,0.2-2.6,0.7-4.101
						l7.301-24.604h14.803l-15.702,41.406H870.772L870.772,2266.598z"/>
				</g>
				<g>
					<path style="fill:#FFFFFF;" d="M915.88,2266.598h-14.103v-53.408h31.405v11.602H915.88v10.201h15.902v11.603H915.88V2266.598
						L915.88,2266.598z"/>
				</g>
				<g>
					<path style="fill:#FFFFFF;" d="M956.387,2267.198c-6.802,0-12.103-1.801-16.003-5.501c-3.801-3.701-5.701-8.901-5.701-15.703
						c0-7.001,1.801-12.401,5.301-16.103c3.501-3.7,8.502-5.601,15.003-5.601c6.201,0,11.002,1.601,14.402,4.9
						c3.4,3.301,5.101,7.902,5.101,14.103v6.401h-25.404c0.101,2.301,0.9,4.101,2.501,5.4c1.6,1.301,3.7,2.001,6.501,2.001
						c2.5,0,4.801-0.2,6.9-0.7c2.101-0.5,4.301-1.301,6.802-2.4v10.302c-2.2,1.2-4.501,1.9-6.901,2.4
						C962.487,2267.098,959.687,2267.198,956.387,2267.198z M955.586,2234.192c-1.7,0-3.101,0.5-4.2,1.601
						c-1.101,1.1-1.801,2.7-2.001,5.001h12.202c-0.1-2.001-0.6-3.601-1.7-4.801C958.787,2234.793,957.387,2234.192,955.586,2234.192
						z"/>
				</g>
				<g>
					<path style="fill:#FFFFFF;" d="M1009.795,2253.796c0,4.4-1.5,7.802-4.501,10.102c-3,2.301-7.301,3.4-12.901,3.4
						c-3.001,0-5.701-0.2-7.901-0.5c-2.301-0.3-4.501-0.9-6.901-1.8v-11.402c2.2,1,4.601,1.801,7.201,2.4
						c2.601,0.601,5.001,0.9,7.001,0.9c3.101,0,4.601-0.7,4.601-2.101c0-0.7-0.4-1.4-1.3-2c-0.9-0.601-3.4-1.7-7.501-3.301
						c-3.801-1.601-6.401-3.301-7.901-5.301c-1.501-2-2.301-4.501-2.301-7.501c0-3.801,1.5-6.802,4.4-9.002s7.102-3.2,12.502-3.2
						c2.701,0,5.302,0.3,7.602,0.9c2.4,0.6,4.801,1.5,7.401,2.601l-3.801,9.201c-1.9-0.801-3.9-1.601-6.001-2.2
						c-2.101-0.601-3.801-0.9-5.101-0.9c-2.301,0-3.501,0.6-3.501,1.7c0,0.7,0.4,1.3,1.2,1.801c0.801,0.5,3.201,1.5,7.002,3.1
						c2.9,1.2,5,2.4,6.4,3.501s2.501,2.5,3.101,4.001C1009.395,2249.795,1009.795,2251.695,1009.795,2253.796z"/>
				</g>
				<g>
					<path style="fill:#FFFFFF;" d="M1033.299,2255.896c1.9,0,4.201-0.5,6.901-1.4v10.401c-1.9,0.801-3.7,1.4-5.501,1.801
						c-1.7,0.399-3.801,0.5-6.102,0.5c-4.801,0-8.201-1.2-10.301-3.501c-2.101-2.4-3.201-6.001-3.201-10.802v-17.103h-5.001v-5.801
						l6.302-4.501l3.7-8.701h9.302v8.302h10.102v10.701h-10.102v16.103C1029.498,2254.696,1030.799,2255.896,1033.299,2255.896z"/>
				</g>
			</g>
			<g>
				<g>
					<path style="fill:#FFFFFF;" d="M613.13,2236.593h23.104v28.805c-6.302,2.101-13.203,3.201-20.704,3.201
						c-8.201,0-14.603-2.4-19.103-7.201c-4.501-4.801-6.701-11.603-6.701-20.403c0-8.602,2.5-15.303,7.401-20.104
						c4.9-4.801,11.802-7.201,20.703-7.201c3.4,0,6.501,0.3,9.501,1c3.001,0.601,5.602,1.4,7.802,2.4l-4.601,11.302
						c-3.801-1.9-8.102-2.8-12.702-2.8c-4.201,0-7.501,1.399-9.802,4.101c-2.301,2.7-3.5,6.7-3.5,11.802c0,5.001,1,8.802,3.1,11.401
						c2.101,2.601,5.102,3.901,9.002,3.901c2.101,0,4.101-0.2,5.9-0.601v-8.401h-9.501L613.13,2236.593L613.13,2236.593
						L613.13,2236.593z"/>
				</g>
				<g>
					<path style="fill:#FFFFFF;" d="M687.942,2239.894c0,8.901-2.5,15.803-7.401,20.604c-4.9,4.801-11.802,7.201-20.703,7.201
						h-17.303v-53.509h18.503c8.602,0,15.202,2.2,19.903,6.601C685.642,2225.291,687.942,2231.692,687.942,2239.894z
						 M672.94,2240.394c0-4.9-1.001-8.501-2.901-10.901s-4.9-3.601-8.801-3.601h-4.201v29.904h3.201c4.4,0,7.601-1.3,9.701-3.8
						C671.939,2249.695,672.94,2245.795,672.94,2240.394z"/>
				</g>
				<g>
					<path style="fill:#FFFFFF;" d="M714.547,2236.593h23.104v28.805c-6.301,2.101-13.102,3.201-20.703,3.201
						c-8.201,0-14.603-2.4-19.104-7.201c-4.5-4.801-6.701-11.603-6.701-20.403c0-8.602,2.501-15.303,7.401-20.104
						c4.901-4.801,11.802-7.201,20.704-7.201c3.4,0,6.501,0.3,9.501,1c3.001,0.601,5.601,1.4,7.802,2.4l-4.602,11.302
						c-3.9-1.9-8.101-2.8-12.701-2.8c-4.201,0-7.502,1.399-9.802,4.101c-2.301,2.7-3.501,6.7-3.501,11.802
						c0,5.001,1,8.802,3.101,11.401c2.101,2.601,5.101,3.901,9.001,3.901c2.101,0,4.102-0.2,5.901-0.601v-8.401h-9.501
						L714.547,2236.593L714.547,2236.593z"/>
				</g>
			</g>
		</g>
	</g>
</g>
<g>
	<path style="fill:#FFFFFF;" d="M533.817,2305.104l-79.013-126.421h-21.804c-4.401,0-6.001,3-3.801,6.701l53.009,86.514l0.3,0.4
		l35.906,57.51L533.817,2305.104z"/>
	<path style="fill:#FFFFFF;" d="M546.02,2285.401c2.3-3.701,2.3-9.702,0-13.402l-53.609-86.614c-2.3-3.7-7.701-6.701-12.002-6.701
		h-22.003l77.212,123.521L546.02,2285.401z"/>
	<path style="fill:#FFFFFF;" d="M501.112,2307.904l-44.208,70.812h23.504c4.301,0,9.802-3,12.002-6.7l21.404-34.606
		c0.1-0.1,0.199-0.399,0.6-1l2.2-3.601L501.112,2307.904z"/>
	<path style="fill:#FFFFFF;" d="M482.309,2285.401l-53.009,86.514c-2.3,3.7-0.6,6.701,3.801,6.701h20.304l46.007-73.612
		l-15.402-24.804C483.709,2282.101,483.109,2283.9,482.309,2285.401z"/>
</g>
<g>
	<path style="fill:#FFFFFF;" d="M774.967,2295.193l24.316,28.564v-28.564h7.733v40.928h-6.797l-24.463-29.032v29.032h-7.734v-40.928
		H774.967z"/>
	<path style="fill:#FFFFFF;" d="M824.946,2308.23c3.517,0,6.201,0.747,8.058,2.241s2.783,3.579,2.783,6.255v13.389
		c0,1.035,0.42,1.553,1.26,1.553c0.353,0,0.845-0.15,1.479-0.453c0.634-0.304,1.166-0.649,1.597-1.04v4.159
		c-2.521,1.543-4.824,2.314-6.914,2.314c-1.289,0-2.28-0.215-2.974-0.645c-0.694-0.431-1.178-1.191-1.45-2.285
		c-2.755,1.953-5.519,2.93-8.291,2.93c-1.974,0-3.667-0.664-5.083-1.992s-2.124-2.92-2.124-4.774c0-2.363,0.702-4.229,2.108-5.597
		c1.406-1.366,3.867-2.559,7.383-3.573l5.83-1.699v-1.26c0-2.677-1.621-4.015-4.862-4.015c-1.66,0-3.312,0.381-4.951,1.144
		c-1.64,0.762-3.135,1.885-4.481,3.368v-6.475C817.301,2309.411,820.847,2308.23,824.946,2308.23z M820.553,2328.797
		c0,0.996,0.317,1.797,0.952,2.401c0.635,0.605,1.421,0.908,2.357,0.908c1.582,0,3.164-0.723,4.746-2.168v-7.207
		c-2.012,0.684-3.588,1.328-4.73,1.934c-1.143,0.606-1.982,1.222-2.52,1.847C820.819,2327.137,820.553,2327.898,820.553,2328.797z"
		/>
	<path style="fill:#FFFFFF;" d="M859.928,2308.23c2.931,0,5.269,0.962,7.017,2.886s2.623,4.458,2.623,7.604v17.401h-7.178v-16.67
		c0-1.776-0.426-3.184-1.274-4.219s-2.007-1.553-3.472-1.553c-1.113,0-2.158,0.327-3.136,0.98c-0.978,0.654-2.051,1.743-3.223,3.268
		v18.192h-7.207v-27.362h7.207v3.838c1.327-1.562,2.69-2.682,4.087-3.354S858.287,2308.23,859.928,2308.23z"/>
	<path style="fill:#FFFFFF;" d="M883.979,2308.758v29.647c0,3.047-0.692,5.552-2.08,7.515c-1.387,1.964-3.418,3.297-6.094,4
		l-3.34-6.123c2.871-0.685,4.307-2.822,4.307-6.416v-28.623H883.979L883.979,2308.758z M880.377,2296.102
		c1.074,0,2.013,0.4,2.812,1.201c0.801,0.801,1.201,1.758,1.201,2.871c0,1.133-0.396,2.1-1.187,2.899s-1.733,1.201-2.827,1.201
		s-2.046-0.415-2.855-1.245c-0.811-0.83-1.217-1.781-1.217-2.855c0-1.133,0.41-2.096,1.23-2.887S879.303,2296.102,880.377,2296.102z
		"/>
	<path style="fill:#FFFFFF;" d="M895.26,2296.102c1.113,0,2.07,0.4,2.871,1.201c0.802,0.801,1.201,1.758,1.201,2.871
		c0,1.073-0.396,2.025-1.187,2.855s-1.754,1.245-2.887,1.245c-1.094,0-2.046-0.415-2.855-1.245c-0.811-0.83-1.217-1.782-1.217-2.855
		c0-1.134,0.41-2.096,1.23-2.887S894.187,2296.102,895.26,2296.102z M898.862,2308.758v27.362h-7.207v-27.362H898.862z"/>
	<path style="fill:#FFFFFF;" d="M922.153,2308.23c2.931,0,5.27,0.962,7.018,2.886s2.622,4.458,2.622,7.604v17.401h-7.179v-16.67
		c0-1.776-0.424-3.184-1.273-4.219c-0.849-1.035-2.007-1.553-3.472-1.553c-1.113,0-2.158,0.327-3.136,0.98
		c-0.977,0.654-2.051,1.743-3.223,3.268v18.192h-7.207v-27.362h7.207v3.838c1.328-1.562,2.69-2.682,4.088-3.354
		C918.995,2308.568,920.515,2308.23,922.153,2308.23z"/>
	<path style="fill:#FFFFFF;" d="M964.021,2308.758v5.098h-4.688c0.762,0.938,1.293,1.802,1.596,2.593
		c0.304,0.791,0.455,1.646,0.455,2.563c0,2.188-0.819,4.188-2.461,6.006c-1.444,1.582-3.926,2.607-7.44,3.076
		c-1.896,0.233-3.15,0.503-3.767,0.806s-0.922,0.767-0.922,1.392c0,0.566,0.375,1.002,1.127,1.305s1.959,0.591,3.619,0.863
		c4.121,0.664,7.151,1.681,9.096,3.048c1.944,1.366,2.916,3.174,2.916,5.42c0,2.891-1.182,5.112-3.545,6.665
		c-2.362,1.553-5.762,2.329-10.194,2.329c-4.199,0-7.539-0.732-10.021-2.197s-3.722-3.428-3.722-5.89
		c0-3.477,2.394-5.879,7.179-7.207c-2.07-0.897-3.104-2.079-3.104-3.545c0-1.914,1.562-3.231,4.688-3.955v-0.116
		c-2.129-0.586-3.824-1.631-5.084-3.136c-1.26-1.504-1.889-3.262-1.889-5.272c0-2.949,1.113-5.327,3.34-7.134
		c2.227-1.808,5.137-2.71,8.729-2.71L964.021,2308.758L964.021,2308.758z M942.78,2341.512c0,2.44,2.441,3.662,7.324,3.662
		c2.108,0,3.764-0.338,4.965-1.012s1.803-1.558,1.803-2.65c0-1.211-0.68-2.124-2.037-2.739s-3.275-0.923-5.756-0.923
		c-1.855,0-3.369,0.347-4.541,1.04C943.366,2339.582,942.78,2340.457,942.78,2341.512z M944.508,2318.66
		c0,1.427,0.502,2.612,1.509,3.561c1.006,0.948,2.231,1.421,3.678,1.421c1.483,0,2.705-0.493,3.662-1.479
		c0.957-0.985,1.436-2.23,1.436-3.734c0-1.348-0.498-2.477-1.494-3.384c-0.996-0.908-2.197-1.362-3.604-1.362
		c-1.445,0-2.672,0.493-3.678,1.479C945.01,2316.146,944.508,2317.312,944.508,2318.66z"/>
</g>
</svg>
