<?xml version="1.0" encoding="iso-8859-1"?>
<!-- Generator: Adobe Illustrator 16.0.0, SVG Export Plug-In . SVG Version: 6.00 Build 0)  -->
<!DOCTYPE svg PUBLIC "-//W3C//DTD SVG 1.1//EN" "http://www.w3.org/Graphics/SVG/1.1/DTD/svg11.dtd">
<svg version="1.1" id="&#x56FE;&#x5C42;_1" xmlns="http://www.w3.org/2000/svg" xmlns:xlink="http://www.w3.org/1999/xlink" x="0px"
	 y="0px" viewBox="0 0 284.993 204.714" style="enable-background:new 0 0 284.993 204.714;"
	 xml:space="preserve">
<g>
	<path style="fill:#418C8E;" d="M258.03,152.904c-5.68-2.315-16.113-1.151-16.283-10.545c18.211,7.601,43.52-9.613,43.244-27.627
		c-0.18-11.23-8.836-15.272-13.637-14.368c-4.84,0.428-12.121,7.05-8.09,10.525c1.268,1.103,2.48,0.936,3.652,0.316
		c0.02,0.26,0.07,0.514,0.131,0.787c0.592,2.418,2.768,3.966,4.869,3.458c2.086-0.51,3.309-2.895,2.723-5.316
		c-0.135-0.537-0.352-1.044-0.623-1.472c0.146,0.091,0.287,0.2,0.436,0.321c8.225,9.783-10.123,27.324-23.141,25.71
		c-10.497-1.294-13.344-11.872-20.114-12.456c-2.896,2.53-2.704,8.158-7.671,8.627c-1.646-0.591,0.077-4.553-1.91-4.795
		c-6.028,16.597-23.603,25.852-45.045,23.955c-2.895,1.138,4.711,4.724,0.959,6.711c-6.429,0.674-10.508-0.985-16.293-0.961
		c1.754,6.555,4.057,12.564,5.748,19.168c14.646,1.545,22.748-8.557,35.461-5.754c-10.094,4.608-19.973,9.42-34.497,9.585
		c-0.749,3.948,1.466,4.918,0.954,8.624c21.751,2.301,28.266-8.153,37.371-17.248c-3.297-4.295-12.335-19.225-0.956-21.076
		c-7.455,24.688,18.344,23.594,36.429,25.869c-1.155,5.948-2.631,16.277-1.838,23.43c0.184,1.541,1.858,5.527,5.305,5.971
		c4.729,0.743,22.842,0.375,28.016-1.154c1.664-0.492,3.463-3.749,4.053-4.932C285.177,177.245,272.544,158.817,258.03,152.904z
		 M258.798,179.668c-4.287-1.06-9.771-0.382-14.291,0.882c3.099-4.52,10.348-5.107,15.609-3.957
		c5.061,1.315,6.814,3.941,8.139,7.455C268.548,185.247,264.97,181.157,258.798,179.668z"/>
	<path style="fill:#83B9BD;" d="M91.287,73.366c8.425-7.229,21.604-1.847,31.624,0c3.399-10.955-12.23-17.199-16.297-26.832
		c-10.441-0.862-16.899,2.26-16.288,12.456c3.098-0.102,2.045-4.348,6.711-2.878c3.547,3.153,6.452,6.961,8.624,11.505
		c-5.667,2.815-6.489-4.993-10.54-6.708c-2.93,1.993,2.283,6.549-0.96,8.62c-3.562,1.008-1.391-3.772-3.776-4.388
		C90.964,67.435,89.127,72.648,91.287,73.366z"/>
	<path style="fill:#40828E;" d="M165.069,106.904c-0.804-2.071-2.481-3.268-1.91-6.715c-6.218-2.386-14.154,2.317-10.538,9.589
		c4.026-0.194,8.007-0.343,8.616,2.873c0.371,5.471-2.832,7.393-4.791,10.544C172.955,126.433,181.129,109.083,165.069,106.904z"/>
	<path style="fill:#77BEAD;" d="M114.321,37.498c6.303,0.75,5.393,12.758,10.427,12.354c-1.558-3.674,3.308-6.753,6.78-5.239
		C126.003,42.475,121.189,35.132,114.321,37.498z"/>
	<path style="fill:#3A8387;" d="M147.825,135.65c8.361,5.381,7.429,20.044,23.957,17.254c3.035-0.983-4.337-4.435-0.958-5.748
		c25.42,2.349,44.21-9.178,51.745-27.798c2.459,0.095,1.366,3.745,3.838,3.837c14.617-28.54-27.053-43.727-39.289-23.007
		C207.692,127.708,173.533,150.793,147.825,135.65z"/>
	<path style="fill:#67BEB7;" d="M126.85,50.638c0,0,2.017,1.923,4.311,0.474c2.066-1.301,1.005-4.817-1.573-4.555
		c-1.649,0.168-1.931,1.487-1.955,2.074c-0.054,1.019,0.733,1.545,1.173,1.713C129.298,50.548,128.821,51.339,126.85,50.638z"/>
	<path style="fill:#2E7274;" d="M125.784,124.156c-14.701-1.966-13.014,6.64-20.123,12.456c-2.072-7.445,5.287-16.432,14.37-17.254
		c15.121-1.363,29.469,17.447,46.954,17.254c27.482-0.305,31.504-39.321,0-39.292c-3.457,10.304,11.095,6.945,11.504,17.25
		c0.367,9.253-9.436,13.091-17.252,13.418c-12.025,0.495-20.328-10.616-35.453-12.458c-15.086-1.844-28.801,5.315-25.868,24.912
		c1.474,9.888,8.547,15.199,14.379,19.167c7.894,5.386,28.937,6.481,22.026,21.084c-13.575-8.8-25.231,2.663-18.21,17.548
		c3.428,7.059,16.759,4.664,26.924,5.459c12.552,0.977,20.429,0.873,21.16-6.423c0.231-4.667-1.398-4.22-1.459-6.849
		C164.441,166.646,149.724,127.35,125.784,124.156z M146.216,186.338c-3.396-6.045-9.545-5.529-9.545-5.529
		c3.904-1.458,8.191-0.655,10.882,2.136C152.474,188.081,149.614,192.378,146.216,186.338z M124.827,154.817
		c-0.504-0.77-0.998-1.549-0.967-2.873c21.524-2.951,34.369,12.906,36.424,32.58C152.39,170.692,147.273,154.088,124.827,154.817z"
		/>
	<path style="fill:#91C6C1;" d="M135.369,173.983c-18.685-9.431-42.402-14.529-38.478-45.006
		c2.88-18.588,30.47-21.939,44.904-11.083c1.168-11.605,5.353-19.008,10.825-26.317c10.219,9.406,20.173-12.738,10.538-14.38
		c-1.501,1.408,2.044,9.284-2.875,9.582c-1.967-0.909-2.659-3.091-3.838-4.791c-1.599,7.519-21.875,16.424-24.918,4.791
		c5.355,1.96,18.105,1.032,17.259-2.875c-3.925,2.844-15.64,3.524-16.292-0.957c2.723-0.009,11.589,2.43,10.543,0
		c-4.717,0.238-8.358-0.59-10.543-2.874c1.541-2.805,4.932,1.521,5.747-0.958c-2.828-0.167-6.308-2.209-3.833-4.795
		c5.05,3.072,17.157,4.417,23.004,0.965c1.06-5.887-2.267-6.223-1.926-14.375c-4.948,8.254-25.11,4.437-17.245-6.709
		c2.725,1.754,1.421,7.521,4.796,8.622c10.455-0.062,17.531-13.214,15.329-12.453c-11.407,2.137-20.306-6.202-26.839-5.755
		c4.571,1.97,4.653,7.167,0.865,9.319c-5.304,2.839-11.126-0.367-13.953-9.456c-0.913-2.861-1.938-4.59-3.359-5.221
		c-1.172-0.531-2.559-0.101-3.066,0.05c-7.911,2.204-14.642-8.14-19.216,1.272c0.412,0.371,0.869-0.277,1.238-0.155
		c0.534,0.171,1.053,0.69,1.509,0.406c1.805-1.112,3.426-4.865,5.318-1.007c-3.264,2.186-11.676,5.141-10.071,8.999
		c0.365-0.78,1.253-0.882,1.398-1.121c2.758-3.791,9.062-4.364,16.343-4.045c2.461,11.068,21.579,16.297,19.169,27.794
		c-3.089,14.706-28.127-7.754-37.377,6.714c2.34,5.79,15.384,3.585,16.288,12.449c1.155,11.273-24.493,18.393-29.704,32.584
		c-5.396,14.703,6.617,27.691,6.711,35.455c0.117,10.222-6.248,15.039-16.287,18.405c2.485-0.078,4.138,0.613,6.166,2.441
		c1.904,1.701,3.11,5.014,2.392,5.36c-1.082,0.517-1.082-0.888-3.41-3.753c-2.928-3.586-5.147-4.049-5.147-4.049
		c-5.24-6.143-21.538-8.424-23.968,0c0,0-4.353,11.631,4.864,20.308c5.645,5.333,17.58-1.08,32.768,2.282
		c9.641,2.131,14.123-11.09,14.123-11.09c5.095-5.442,9.63-13.561,16.294-17.447C118.401,172.436,127.606,176.619,135.369,173.983z"
		/>
</g>
<g>
	<path style="fill:#EAF0F4;" d="M25.274,30.166c0.729-0.874,1.457-1.749,2.041-2.623c1.894-2.478,3.789-4.809,5.537-7.287
		c0.583-0.874,1.02-1.894,1.02-3.06c-0.146,0-0.146-0.146-0.291,0c-4.081,0.292-8.015-1.02-11.658-2.478
		c-1.603-0.583-3.206-1.312-4.955-2.04c-0.438-0.146-0.729-0.437-1.02-0.729c-0.874-1.02-0.438-2.186,0.729-2.477
		c0.146,0,0.146,0,0.291-0.146c-0.874-2.914-1.749-5.829-2.623-8.889c0.875,0,1.749,0,2.623,0c0.146,0,0.437,0.146,0.583,0.437
		c1.312,1.749,2.769,3.352,4.08,5.101c1.749,2.332,4.227,3.352,7.141,3.352c8.307,0,16.468,0,24.774,0
		c3.498,0,6.558,1.166,9.473,3.061c0.437,0.292,0.874,0.729,1.311,1.166c0.583,0.583,0.583,1.312-0.146,1.749
		c-0.583,0.437-1.312,0.875-2.04,1.02c-1.166,0.292-2.478,0.583-3.789,0.583c-2.914,0.146-5.829,0-8.598,0
		c-0.437,0-0.875,0.146-1.312,0.438c-6.266,4.08-12.533,8.161-18.654,12.241c-0.583,0.292-1.02,0.438-1.603,0.438
		C27.315,30.166,26.44,30.166,25.274,30.166z M61.852,12.97c-0.729-0.292-1.312-0.729-1.894-0.875c-0.146,0-0.292,0-0.438,0
		c-0.729,0.146-1.312,0.146-2.04,0.292c-0.438,0-0.729,0.292-0.875,0.729c0,0.583,0.146,0.875,0.728,1.02
		C58.938,14.281,60.395,13.99,61.852,12.97z M38.244,13.261c0-0.438-0.438-1.02-1.02-1.02c-0.583,0-1.02,0.437-1.02,1.02
		s0.437,1.02,1.02,1.02C37.807,14.135,38.244,13.698,38.244,13.261z M33.581,12.241c-0.583,0-0.875,0.437-0.875,1.02
		s0.437,1.02,1.02,0.874c0.583,0,0.875-0.437,0.875-1.02C34.456,12.678,34.018,12.241,33.581,12.241z M52.38,12.241
		c-0.583,0-1.02,0.437-1.02,1.02s0.437,1.02,0.874,1.02c0.583,0,1.02-0.437,1.02-1.02S52.817,12.241,52.38,12.241z M49.465,13.115
		c0-0.583-0.438-1.02-1.02-1.02c-0.438,0-1.021,0.438-1.021,1.02c0,0.583,0.438,1.02,1.021,1.02
		C49.028,14.135,49.465,13.698,49.465,13.115z M44.802,12.241c-0.583,0-1.02,0.437-1.02,1.02s0.438,1.02,1.02,1.02
		c0.583,0,1.021-0.437,1.021-1.02S45.385,12.241,44.802,12.241z M42.033,13.261c0-0.583-0.437-1.02-0.874-1.02
		c-0.437,0-1.02,0.437-1.02,0.874c0,0.583,0.438,1.02,1.02,1.02C41.596,14.135,42.033,13.698,42.033,13.261z M30.812,13.261
		c0-0.583-0.437-1.02-1.02-1.02c-0.437,0-1.02,0.437-1.02,1.02s0.438,1.02,1.02,1.02C30.375,14.135,30.812,13.698,30.812,13.261z"/>
	<path style="fill:#EAF0F4;" d="M30.083,0c1.166,0,2.332,0,3.498,0c0.146,0,0.291,0.146,0.437,0.146
		c3.061,2.478,6.121,4.955,9.327,7.578c0,0,0,0,0.146,0.146c-0.291,0-0.438,0-0.583,0c-2.769,0-5.538,0-8.452,0
		c-0.438,0-0.583-0.146-0.875-0.583c-1.02-2.332-2.186-4.518-3.206-6.849C30.375,0.437,30.229,0.292,30.083,0z"/>
	<path style="fill:#EAF0F4;" d="M42.47,23.316c1.312-1.166,5.538-3.643,5.975-3.643c-1.021,1.457-1.021,3.06,0,4.663
		C46.405,24.336,44.365,24.773,42.47,23.316z"/>
	<path style="fill:#EAF0F4;" d="M20.465,15.738c-1.311,0.875-2.186,2.332-3.935,1.604c0.438-0.875,1.021-1.749,1.604-2.624
		C18.862,15.01,19.591,15.301,20.465,15.738z"/>
	<path style="fill:#EAF0F4;" d="M48.299,6.558c-0.292,0.437-0.437,0.875-0.729,1.312c-1.457,0.437-2.186-0.437-3.206-1.312
		C45.677,6.558,46.988,6.558,48.299,6.558z"/>
	<path style="fill:#EAF0F4;" d="M49.32,23.608c-0.729-0.875-0.729-2.332,0-3.061C50.048,21.276,50.048,22.733,49.32,23.608z"/>
</g>
<path style="fill:#EAF0F4;" d="M244.979,36.785L244.979,36.785h-16.004h-0.517c-1.42,0-2.711-1.162-2.711-2.71
	c0-1.291,0.903-2.323,2.065-2.582h1.549h7.744l0,0c0.129,0,0.258,0,0.388-0.129c1.161-0.258,2.064-1.291,2.064-2.582
	c0-1.42-1.161-2.581-2.452-2.71l0,0h-33.559c-1.419,0-2.71,1.162-2.71,2.71c0,1.291,0.903,2.323,2.065,2.582h-7.486
	c-1.42,0-2.711,1.162-2.711,2.71c0,1.42,1.162,2.71,2.711,2.71h15.488l0,0h0.129c1.291,0.129,2.323,1.291,2.323,2.71
	c0,1.291-1.032,2.452-2.323,2.582h-0.129h-24.265c-0.13,0-0.259,0-0.388,0c-1.291,0.258-2.323,1.291-2.323,2.581
	c0,1.42,1.161,2.71,2.711,2.71h9.551c-1.162,0.259-2.065,1.291-2.065,2.582c0,1.42,1.162,2.71,2.711,2.71h33.559l0,0
	c1.419-0.129,2.452-1.291,2.452-2.71c0-1.291-0.904-2.323-1.937-2.582c-0.129,0-0.387-0.129-0.516-0.129l0,0h-9.681h-2.323
	c-1.161-0.258-1.937-1.291-1.937-2.582c0-1.419,1.162-2.71,2.711-2.71h1.549h24.523l0,0c1.42-0.129,2.452-1.291,2.452-2.71
	C247.433,38.075,246.271,36.914,244.979,36.785z"/>
<path style="fill:#EAF0F4;" d="M46.192,143.342L46.192,143.342H15.522c-1.377,0-2.504,1.126-2.504,2.504
	c0,1.251,0.876,2.253,2.128,2.378H2.503c-1.377,0-2.503,1.127-2.503,2.504s1.126,2.504,2.503,2.504h8.763
	c-1.126,0.25-1.877,1.252-1.877,2.379c0,1.377,1.126,2.503,2.503,2.503h30.67l0,0c1.252-0.125,2.253-1.126,2.253-2.378
	s-1.001-2.379-2.253-2.379l0,0h-3.38h-5.507h-1.628c-1.126-0.25-2.003-1.252-2.003-2.379c0-1.126,0.876-2.128,2.003-2.378h1.502
	h5.508h7.135l0,0c1.252-0.125,2.253-1.127,2.253-2.378C48.445,144.468,47.444,143.468,46.192,143.342z"/>
</svg>
